<?xml version="1.0" encoding="utf-8"?>
<!-- Generator: Adobe Illustrator 15.0.2, SVG Export Plug-In . SVG Version: 6.00 Build 0)  -->
<!DOCTYPE svg PUBLIC "-//W3C//DTD SVG 1.1//EN" "http://www.w3.org/Graphics/SVG/1.1/DTD/svg11.dtd">
<svg version="1.1" id="Layer_1" xmlns="http://www.w3.org/2000/svg" xmlns:xlink="http://www.w3.org/1999/xlink" x="0px" y="0px"
	 width="470.551px" height="49.247px" viewBox="0 0 470.551 49.247" enable-background="new 0 0 470.551 49.247"
	 xml:space="preserve">
<path fill="#FFFFFF" d="M13.156,23.645c0,0,2.134-1.066,3.912-1.778s-2.134-13.156-0.71-16c1.422-2.844-6.045-4.622-6.045-4.622H0
	l0.711,45.513h4.623L4.267,25.779l3.912-0.356l9.957,21.689l3.2-0.709L13.156,23.645z M4.267,23.291L3.912,6.222
	c0,0,7.111-5.689,8.178,1.778c1.066,7.467,2.134,7.467,1.422,11.023C12.8,22.579,11.378,25.067,4.267,23.291z"/>
<path fill="#FFFFFF" d="M20.8,16.89c0,0,3.734-1.245,3.557,1.245c-0.178,2.488,1.244,22.046,1.777,23.112
	c0.534,1.066,0.712,2.667,5.689,3.021c4.229,0.302,2.706-3.383,2.845-3.021c0.889,2.31-0.889-19.379-0.711-24.713l3.378-0.177
	l1.244,26.311c0,0,1.067,3.201-0.178,3.912c-1.245,0.712-3.378,0-3.378,0s-0.533-1.777-2.489-1.066
	c-1.956,0.71-5.512,1.244-10.134-1.777C22.401,43.736,20.09,20.267,20.8,16.89z"/>
<path fill="#FFFFFF" d="M56.713,42.847c-0.71-1.958-0.356-40.536-0.356-40.536L52.98,1.956c-0.711,0.532-0.355,12.8-0.533,13.866
	c-0.179,1.067-9.068,3.378-10.49,4.8c-1.422,1.422-1.422,20.267,0.711,23.468c2.132,3.201,12.445,1.778,12.445,1.778
	C56.713,46.935,57.425,44.802,56.713,42.847z M50.135,44.446c-2.311-0.89-1.6,0.711-3.377-4.266
	c-1.778-4.979-2.311-14.935-2.49-15.823c0,0,2.845-3.734,7.112-5.156c0,0,1.422-0.178,1.245,1.245
	c-0.177,1.422-0.356,22.756-0.356,22.756S52.447,45.334,50.135,44.446z"/>
<path fill="#FFFFFF" d="M75.025,42.313c0.356-7.467-1.599-23.29-1.422-24.001s-0.356-1.955-1.245-2.132
	C71.469,16,65.78,17.068,65.78,17.068c-2.488,2.133-6.4,2.488-6.4,2.488s-0.342,0.744-0.355,0.889
	c-0.533,5.689,0.711,6.223,0.178,11.377c-0.533,5.156,1.6,10.135,1.6,10.135c-0.177,4.088,3.022,4.088,3.022,4.088
	c6.401,0.534,6.934-1.243,9.422-1.243C75.737,44.802,75.025,42.313,75.025,42.313z M71.648,40.712c0,0-1.957,2.844-2.667,2.489
	c-0.711-0.354-0.711,2.133-3.201-1.778c-2.488-3.91-5.688-15.111-3.733-19.022c0,0,8.889-6.401,7.823-1.067
	C69.87,21.334,72.714,34.49,71.648,40.712z"/>
<path fill="#FFFFFF" d="M79.114,2.667l3.201-0.178c0,0,1.066,39.825,1.066,42.491c0,2.667-1.245,1.244-1.245,1.424
	c0,0.177-3.023,0.177-3.023,0.177V2.667z"/>
<path fill="#FFFFFF" d="M99.204,2.311c0,0,3.734,2.311,0.178,2.133c-3.556-0.178-4.089,0.533-4.089,0.533S91.381,6.401,91.915,9.6
	v4.09c0,0,0,2.844,1.778,1.778l6.401-0.355c0,0,2.489,1.778-0.178,2.488c-2.667,0.711-1.6-0.355-7.111,0.534
	c0,0-0.71,0.71-0.533,1.244c0.178,0.534-0.533,18.667,0.533,21.869c1.067,3.199-0.71,3.199-0.533,4.088
	c0.178,0.889-1.778,0.534-4.267,0.534V19.378c0,0-3.022,0.534-2.489-2.488c0,0-0.711-0.71,1.422-1.245c0,0,0.711,1.245,1.066-0.178
	c0.355-1.423-0.178-6.756,0.178-8c0.356-1.245-0.889-0.889,1.601-2.312C92.271,3.733,95.293,2.667,99.204,2.311z"/>
<path fill="#FFFFFF" d="M118.583,2.133c0,0,10.845-2.133,12.801-2.133c1.955,0,2.667,1.956,0.533,2.311
	c-2.134,0.355-8.356,1.778-9.067,2.667c-0.711,0.889-3.734,0.889-3.022,5.333c0.71,4.445,3.556,4.978,3.556,4.978
	s10.845,11.379,10.845,12.089c0,0.711,1.778,4.268,1.067,5.69c-0.711,1.421,1.066,2.487,0.354,6.932
	c-0.71,4.445-0.177,1.778-2.311,3.913c-2.133,2.132-9.6,1.955-10.844,2.489c-1.245,0.532-7.289,0-7.289-0.712
	s-2.133-0.534,0.533-1.955c0,0,3.556,2.133,11.378-1.068c0,0,5.512,0,3.911-5.511c-1.6-5.511-0.889-9.778-4.444-11.911
	c0,0-3.556-3.734-3.912-3.912c-0.355-0.178-4.266-3.022-5.155-4.444c-0.889-1.422-0.533-2.489-1.245-4.089
	c-0.711-1.601,0.177-2.844-0.177-7.823C116.094,4.978,115.027,2.667,118.583,2.133z"/>
<path fill="#FFFFFF" d="M137.961,10.134l2.844-0.177c0,0,1.601,0.888,0.533,2.844c-1.066,1.955,0.711,3.021,1.422,2.488
	c0,0,2.845,0,3.378,0.178c0.533,0.178,0.889,1.778-0.889,1.601c-1.778-0.178-2.667,0.177-3.378,0.177c-0.71,0,0.356,0.355-0.71,1.6
	l0.533,24.711c0,0,1.245,3.556-1.778,2.312c0,0-1.778,1.777-2.311-1.778s1.245-4.444,0.177-12.268c0,0,0.533-0.711,0.711-1.066
	c0.178-0.354,0.356-1.066-1.067-3.022l0.356-9.066c0,0-0.533-1.067-1.955-0.179c-1.422,0.889-1.778-0.177-1.778-0.177
	s-1.245-3.022,1.778-3.022l1.955-0.177L137.961,10.134z"/>
<path fill="#FFFFFF" d="M162.496,42.49c-1.422,0.89-2.489,0.712-5.333,1.066c-2.845,0.357-3.734,0-5.333-3.021
	c-1.601-3.021-0.889-5.333-1.601-7.466c-0.71-2.135,1.422-2.135,1.422-2.135c6.401,0.356,5.689-1.244,9.245-1.066
	s2.133-2.311,2.133-2.311s0.712-0.889-0.355-6.935c-1.066-6.044-5.333-4.443-5.333-4.443c-0.889-0.179-3.377,0.71-3.377,0.71
	c-6.578-0.179-5.512,2.488-6.223,2.844c-0.711,0.355-1.067,7.645-1.245,7.823c-0.178,0.177,0.356,7.645,0.177,8.355
	c-0.177,0.712,0.889,6.935,0.889,6.935c-0.71,3.556,8,3.91,8,3.91c6.755-0.534,6.401-2.667,7.467-2.667
	C164.095,44.09,163.918,41.601,162.496,42.49z M150.407,21.512c0,0,2.488-2.134,4.978-2.311c0,0,3.912-1.245,3.912,3.556
	l0.355,1.955c0,0,1.956,3.378-1.6,2.667c0,0-0.889,0-1.422,0.355c-0.534,0.355-6.222,0.179-6.222,0.179
	S149.339,27.023,150.407,21.512z"/>
<path fill="#FFFFFF" d="M167.118,16l2.667-0.355c0,0,1.067,0.534,0.889,1.245c-0.178,0.71-0.533,23.468-0.533,23.468
	s1.422,4.977-0.712,6.045c-2.132,1.066-3.733-0.18-3.733-0.18S166.585,25.956,167.118,16z"/>
<path fill="#FFFFFF" d="M175.118,15.645h2.845c0,0,1.066,1.066,0.71,2.133c-0.355,1.066,0.533,1.778,1.245,1.245
	c0.711-0.534,0.178,0.533,2.49-0.889c0,0,0.177-0.534,1.778-1.423c1.599-0.889,1.778-0.354,1.778-0.354s1.955-2.489,3.733,1.066
	s3.556,25.957,2.844,27.202c-0.71,1.244-1.778,3.556-2.667,0c-0.889-3.556,1.778-11.201-3.556-23.291c0,0-0.354-1.956-3.2-0.711
	c0,0-5.155,1.245-4.622,4.8c0.533,3.556-0.533,17.957,0,19.379c0,0,0.533,3.021-1.778,1.777l-1.956,0.355l0.178-27.201
	C174.941,19.734,174.229,16.179,175.118,15.645z"/>
<path fill="#FFFFFF" d="M210.675,43.914l-3.912,0.354c-9.6,0.711-7.466-7.467-8-9.422c-0.533-1.957,1.245-2.489,1.245-2.489
	c3.733,0,6.223-1.066,9.066-1.066c2.845,0,2.134-1.423,2.134-1.423s-0.177-6.577-0.355-10.134c-0.178-3.555-2.311-3.2-2.311-3.2
	c-3.2-0.354-8.89,0.889-8.89,0.889c-4.089,1.778-2.488,2.311-3.022,2.844c-0.533,0.534-0.533,5.868-0.533,5.868l-0.889,2.132
	L195.386,40c1.066,8.535,8.534,6.223,9.067,6.579c0.533,0.355,3.2-0.177,5.867-1.245C212.986,44.268,210.675,43.914,210.675,43.914z
	 M198.764,28.446c0.178-1.245-0.178-4.978,1.067-7.467c0,0,2.844-1.245,3.733-1.245c0,0,3.734-1.778,4.445,2.311
	c0.711,4.09,0.889,4.979,0.889,4.979s0.889,0.355-1.245,1.422c-2.134,1.066-5.155,1.244-6.756,1.244
	C199.298,29.69,198.586,29.69,198.764,28.446z"/>
<path fill="#FFFFFF" d="M214.943,15.467h3.91c0,0,1.245,0,0.889,1.244c-0.355,1.245-0.178,2.312,0.534,1.957
	c0.71-0.356,1.066,0.533,1.066,0.533s2.667-3.378,4.444-3.021c0,0,1.956-1.423,1.956,0.354s0.889,2.311-1.244,2.667
	c-2.133,0.355-6.222,5.689-6.222,5.689s-0.889,0-1.245,6.933c-0.356,6.935-0.179,13.334-0.179,13.334s-2.311,3.379-3.555,0
	l0.177-18.667c0,0-0.355-3.556-0.177-4.978c0.177-1.422-0.355-1.956-0.889-3.556C213.875,16.356,214.943,16.179,214.943,15.467z"/>
<path fill="#FFFFFF" d="M230.232,19.556c0,0,7.289-3.911,14.399-1.245c0,0,0.534,1.778-1.064,1.778
	c-1.603,0-7.468,0.178-9.424,1.245c-1.956,1.067,0.356,8.534,3.378,11.201c3.022,2.667,7.11,6.223,6.4,11.733
	c0,0-6.4,3.023-11.378,2.489c0,0-2.311,1.066-2.311-1.244c0-2.312,1.601-0.889,1.955-1.245c0.356-0.354,6.935,0.711,7.824-2.311
	c0.889-3.023-2.49-4.979-2.846-5.333c-0.355-0.356-6.4-3.735-5.688-6.757C231.477,29.868,229.876,21.156,230.232,19.556z"/>
<path fill="#FFFFFF" d="M247.477,5.689c0,0-0.179-1.423,1.599-1.6c1.778-0.178,1.957,1.245,1.957,2.133
	c0,0.889-0.179,19.023-0.179,19.023l0.534,2.133c0,0,1.6,2.312,2.846-1.422c1.244-3.733,4.977-8.178,6.043-9.777L262.589,16
	c0,0,1.066,0.356,0,1.6c-1.068,1.245-5.334,7.29-5.334,8.179s-0.534,1.422,0.354,3.022c0.89,1.601,5.688,15.112,6.757,15.823
	c1.066,0.71,0.178,1.778-1.601,1.244c0,0-2.31,1.601-2.31-1.423c0-3.022-4.624-12.445-4.979-14.223l-1.958-0.355
	c0,0-2.487,5.511-2.31,5.868c0.178,0.354,0.532,8.532,0.532,8.532s0.534,2.135-1.244,2.312c-1.777,0.178-3.2,0.712-3.376-1.777
	c-0.18-2.489,1.599-16.001,0.889-17.779C247.298,25.246,248.721,24.179,247.477,5.689z"/>
<path fill="#FFFFFF" d="M281.611,42.49c0,0-0.889-19.911-1.065-22.578c-0.178-2.667-1.601-3.378-2.845-3.556
	c-1.243-0.177-11.021,3.2-11.021,3.2c-0.89,0.356-1.068,1.066-1.068,1.066v13.513c1.068,1.601,0.889,5.333,0.889,5.333l1.068,2.667
	l0.354,2.311l1.599,1.423c0,0-2.667,1.243,5.69,0.354S281.611,42.49,281.611,42.49z M278.411,40.358l-1.064,1.6
	c0,0-4.624,4.266-5.334-0.534c0,0-4.801-7.288-3.38-18.49c0,0,4.27-3.556,6.401-3.911c0,0,1.599,0.178,1.424,1.6
	C276.278,22.045,279.299,33.958,278.411,40.358z"/>
<path fill="#FFFFFF" d="M285.522,2.845c0,0,3.023-0.534,3.38,0.354c0.355,0.889,0.176,34.313,0.71,37.158
	c0.534,2.844,0.354,5.155,0.354,5.155s0.534,1.778-1.777,1.244c0,0-3.199,1.244-2.311-1.601
	C286.767,42.313,285.167,5.155,285.522,2.845z"/>
<path fill="#FFFFFF" d="M308.458,44.979c-3.201,1.778-8.18,0-8.18,0c-2.487,0.534-2.312-1.6-2.312-1.6
	c-1.599-1.956-0.89-6.046-1.599-7.111c-0.712-1.066,1.066-2.133,1.066-2.133s9.955-1.246,10.489-1.424
	c0.534-0.177,0.71-1.065,0.71-1.065c0-1.244,0.356-4.623-0.355-9.601c-0.709-4.977-4.265-3.556-4.265-3.556
	c-0.89,0-9.958,0.356-10.312,3.556c-0.354,3.201-0.534,6.578-0.534,6.578l-0.354,0.89V32v1.423l-0.355,0.534
	c0.532,6.043,1.422,8.89,1.422,8.89l-0.532,1.066c6.577,9.421,15.821,1.777,15.821,1.777L308.458,44.979z M296.545,23.823
	c0.532-0.889,0.532-1.956,3.913-2.311c0,0,3.198-1.778,4.62,2.489c1.423,4.266,1.068,4.8,1.068,4.8s0,2.311-1.958,1.778
	l-6.397,1.066l-1.423-0.712C296.369,30.934,296.013,24.711,296.545,23.823z"/>
<path fill="#FFFFFF" d="M311.658,18.667h3.023c0,0,0.709,0.177,1.064,2.667l0.889,0.178c0,0,5.69-1.956,6.757-3.556
	c0,0,1.777,0.178,2.133,0.889c0.356,0.711,1.777,3.734,1.777,3.734v1.778c0,0,3.556,15.289,2.667,23.112
	c0,0,0.356,1.243-1.421,1.066c0,0-1.778,0.889-1.421-1.956c0.354-2.844-1.424-19.912-4.09-22.045l0.177-1.244
	c0,0-2.135-0.889-2.489-0.179c-0.354,0.711-4.266,1.067-4.266,1.422c0,0.355-1.245,0.533-0.889,3.378
	c0.354,2.844,0.532,20.978,0.532,20.978l-4.088,0.356L311.658,18.667z"/>
<path fill="#FFFFFF" d="M365.798,27.862c0,0,2.043-0.819,2.178,1.532c0,0,0.961,1.466,3.074-0.749l1.306-0.196l0.46-0.53
	l1.311-0.021c0,0,1.037,0.418,1.183,3.64c0.148,3.222,0.876,1.902,0.728,4.347c-0.145,2.44,0.857,6.348,0.444,9.58
	c0,0,0.016,0.957-1.298,0.805c0,0-0.468,0.008-0.43-8.796c0,0,0.244-2.269-0.699-2.688l-0.031-1.918l-0.761-0.685
	c0,0,0.338-2.271-2.462-1.701l-1.577,0.811c0,0-1.216-0.066-1.752,1.423c-0.538,1.492,0.337,8.972-0.076,12.204
	c0,0,0.127,1.916-1.195,1.327c0,0-0.93,0.278-1.143-1.201c-0.212-1.478,1.158-14.661,0.285-16.476L365.798,27.862z"/>
<path fill="#FFFFFF" d="M381.499,37.881l4.02-0.241c3.747,0.286,3.537-1.105,3.537-1.105l-0.191-5.749c0.331-2.532-2-2.146-2-2.146
	l-5.143,0.262c-2.597,1.351-2.479,2.656-2.45,4.486c0.031,1.829-0.536,1.489-0.536,1.489l0.076,4.53
	c1.041,0.681,0.302,1.303,0.302,1.303l-0.164,1.397c-1.517,4.385,4.191,4.287,4.191,4.287s3.649,0.112,4.479-0.511
	c0.835-0.624-0.476-0.601-0.476-0.601l-2.059,0.035c-5.041,0.779-4.401-5.767-4.503-6.201
	C380.483,38.683,381.499,37.881,381.499,37.881z M381.207,31.613c0.362-0.616,1.569-1.246,2.971-1.27c0,0,2.78-1.704,3.509,2.642
	c0,0,1.27,3.203-1.816,3.256c-3.088,0.052-4.395,0.335-4.395,0.335l-0.569-0.601C380.906,35.975,380.842,32.228,381.207,31.613z"/>
<path fill="#FFFFFF" d="M393.159,30.191c0,0,4.194-0.942,5.023-1.74c0,0,3.188,0.47,3.567,0.638
	c0.376,0.167,0.674,1.208-0.642,0.882c-1.315-0.327-5.324,0.611-5.603,0.704c-0.279,0.092-0.704,2.626-0.225,3.316
	c0.479,0.688,1.172,2.941,1.646,3.195c0.472,0.255,4.456,3.587,4.462,3.936s2.007,2.493,0.447,4.264c0,0-5.584,1.836-7.657,0.912
	c0,0-0.944-0.419,0.171-0.961l4.016-0.505c0,0,1.577-0.722,1.665-1.16c0.086-0.437-0.02-1.133-0.495-1.474
	c0,0,0.068-1.569-1.431-1.632c0,0-2.939-2.304-3.217-2.211c-0.28,0.092-0.121-1.481-0.877-2.078
	C393.25,35.681,392.977,30.457,393.159,30.191z"/>
<path fill="#FFFFFF" d="M414.876,30.784c0.786-3.325-3.033-2.302-3.033-2.302s-2.055,0.209-4.474,1.035
	c-2.419,0.824-2.031,1.603-2.031,1.603l0.376,0.081c0,0-0.255,1.571-0.536,1.577c-0.28,0.004,0.356,10.104,0.356,10.104
	c1.229,0.676,0.878,1.988,0.878,1.988c0.585,1.474,1.427,1.458,4.979,1.312c3.556-0.146,3.438-1.366,3.712-1.979
	C415.372,43.587,414.876,30.784,414.876,30.784z M410.617,44.626c-1.688-0.231-3.31-2.123-3.276-5.698c0,0-1.107-4.687-0.479-6.353
	c0.626-1.667,0.904-1.847,4.066-2.945c0,0,1.111-0.716,2.186,1.969l0.468,11.146C413.581,42.746,412.305,44.859,410.617,44.626z"/>
<path fill="#FFFFFF" d="M429.314,21.39c-1.021,0.454-1.098,1.501-1.098,1.501s0.045,2.613-0.205,4.536
	c-0.247,1.921-1.936,1.688-1.936,1.688l-3.272,0.143c-4.001,1.376-3.154,1.621-3.154,1.621s-0.215,3.841-0.027,9.414
	c0.187,5.575,1.961,5.458,1.961,5.458c3.474,0.64,5.431,0.17,5.431,0.17c2.63,0.565,2.416-0.998,2.416-0.998
	s-0.125-18.562,0.676-20.929C430.909,21.625,429.314,21.39,429.314,21.39z M424.844,44.91c-1.495,0.112-2.096-2.316-2.868-3.612
	c-0.77-1.293-1.119-5.385-1.119-5.385s0.309-3.838,0.681-4.021c0.372-0.18,1.474-1.419,4.178-1.898c0,0,1.485-0.724,1.548,3.023
	c0.064,3.747,0.452,10.104,0.452,10.104S426.339,44.798,424.844,44.91z"/>
<path fill="#FFFFFF" d="M443.634,21.672c-1.021,0.452-1.098,1.5-1.098,1.5s0.045,2.614-0.205,4.535
	c-0.247,1.922-1.936,1.688-1.936,1.688l-3.272,0.143c-4.001,1.374-3.154,1.621-3.154,1.621s-0.215,3.839-0.027,9.414
	c0.187,5.575,1.961,5.458,1.961,5.458c3.474,0.64,5.431,0.17,5.431,0.17c2.63,0.565,2.418-1,2.418-1s-0.127-18.561,0.674-20.928
	C445.229,21.907,443.634,21.672,443.634,21.672z M439.167,45.192c-1.497,0.113-2.098-2.317-2.87-3.612
	c-0.77-1.294-1.119-5.384-1.119-5.384s0.309-3.841,0.681-4.021c0.372-0.181,1.472-1.421,4.178-1.901c0,0,1.485-0.722,1.548,3.024
	c0.064,3.747,0.452,10.103,0.452,10.103S440.66,45.081,439.167,45.192z"/>
<path fill="#FFFFFF" d="M449.527,38.219l4.019-0.242c3.748,0.287,3.538-1.105,3.538-1.105l-0.189-5.748
	c0.331-2.533-2.002-2.145-2.002-2.145l-5.141,0.26c-2.599,1.351-2.483,2.656-2.452,4.486c0.031,1.831-0.536,1.492-0.536,1.492
	l0.076,4.53c1.041,0.678,0.304,1.302,0.304,1.302l-0.164,1.396c-1.517,4.385,4.188,4.289,4.188,4.289s3.651,0.113,4.483-0.511
	c0.831-0.624-0.479-0.604-0.479-0.604l-2.057,0.035c-5.039,0.784-4.399-5.765-4.501-6.199
	C448.511,39.022,449.527,38.219,449.527,38.219z M449.235,31.95c0.364-0.616,1.569-1.248,2.973-1.271c0,0,2.778-1.701,3.505,2.644
	c0,0,1.271,3.203-1.816,3.256c-3.086,0.051-4.391,0.335-4.391,0.335l-0.572-0.601C448.933,36.312,448.871,32.566,449.235,31.95z"/>
<path fill="#FFFFFF" d="M459.767,29.506l1.025-0.104l1.519,1.195l-0.079,0.785c0,0,2.147-0.123,2.891-0.485
	c0.742-0.36,2.603-1.089,3.262-0.838c0.658,0.249,2.99,10.932,1.865,16.354c0,0-0.519,2.536-1.963,0.033c0,0-0.324-2.436,0.3-4.275
	l-0.456-4.961c0,0-0.184-5.314-1.396-5.032c-1.211,0.283-3.544,0.583-4.191,1.029c-0.649,0.447-1.037-0.331-0.998,1.847
	c0.035,2.18-0.657,11.08-0.657,11.08s0.579,1.123-0.914,1.236c-1.497,0.113-1.875-0.23-1.526-1.718s0.454-6.368,0.454-6.368
	s0.597-3.498,0.495-3.845c-0.098-0.347-0.055-3.31-0.055-3.31S460.243,30.022,459.767,29.506z"/>
</svg>
